# xmcd
#
# Track frame offsets:
#       150
#       13351
#       28626
#       41079
#       52050
#       59513
#       73377
#       93682
#       100191
#       118292
#       131876
#       143995
#       160753
#       176452
#       198592
#       207126
#       212176
#       220344
#       235496
#       247975
#       257905
#
# Disc length: 3500 seconds
#
# Revision: 0
# Processed by: cddbd v1.4PL0 Copyright (c) Steve Scherf et al.
# Submitted via: CD-DA_X-Tractor v0.21
#
DISCID=570daa15
DTITLE=Alexandru Andries - Fara Titlu
DYEAR=1900
DGENRE=
TTITLE0=la rovine
TTITLE1=tarom blues
TTITLE2=la noi
TTITLE3=blues categoric
TTITLE4=militienii
TTITLE5=ingerul meu
TTITLE6=bontea si bacs
TTITLE7=nimeni n-o place pe leana
TTITLE8=ai observat ?!?
TTITLE9=FARA TITLU
TTITLE10=seherezada
TTITLE11=bluesul mamicii
TTITLE12=mai bine cu coada
TTITLE13=acasa
TTITLE14=tamara
TTITLE15=nina
TTITLE16=ce oras frumos
TTITLE17=am cravata mea
TTITLE18=am pneumonie
TTITLE19=dracula blues
TTITLE20=la telejurnal
EXTD=
EXTT0=
EXTT1=
EXTT2=
EXTT3=
EXTT4=
EXTT5=
EXTT6=
EXTT7=
EXTT8=
EXTT9=
EXTT10=
EXTT11=
EXTT12=
EXTT13=
EXTT14=
EXTT15=
EXTT16=
EXTT17=
EXTT18=
EXTT19=
EXTT20=
PLAYORDER=
